<?xml version="1.0" standalone="no"?>
<!DOCTYPE svg PUBLIC "-//W3C//DTD SVG 1.1//EN" "http://www.w3.org/Graphics/SVG/1.1/DTD/svg11.dtd" >
<svg xmlns="http://www.w3.org/2000/svg">
<metadata>
Created by FontForge 20120731 at Thu Jul 20 09:53:00 2017
 By admin
</metadata>
<defs>
<font id="iconfont" horiz-adv-x="1024" >
  <font-face 
    font-family="iconfont"
    font-weight="500"
    font-stretch="normal"
    units-per-em="1024"
    panose-1="2 0 6 3 0 0 0 0 0 0"
    ascent="896"
    descent="-128"
    x-height="792"
    bbox="-0.535212 -212 1491 896.5"
    underline-thickness="0"
    underline-position="0"
    unicode-range="U+0078-E70B"
  />
<missing-glyph 
 />
    <glyph glyph-name=".notdef" 
 />
    <glyph glyph-name=".notdef" 
 />
    <glyph glyph-name=".null" horiz-adv-x="0" 
 />
    <glyph glyph-name="nonmarkingreturn" horiz-adv-x="341" 
 />
    <glyph glyph-name="x" unicode="x" horiz-adv-x="1001" 
d="M281 543q-27 -1 -53 -1h-83q-18 0 -36.5 -6t-32.5 -18.5t-23 -32t-9 -45.5v-76h912v41q0 16 -0.5 30t-0.5 18q0 13 -5 29t-17 29.5t-31.5 22.5t-49.5 9h-133v-97h-438v97zM955 310v-52q0 -23 0.5 -52t0.5 -58t-10.5 -47.5t-26 -30t-33 -16t-31.5 -4.5q-14 -1 -29.5 -0.5
t-29.5 0.5h-32l-45 128h-439l-44 -128h-29h-34q-20 0 -45 1q-25 0 -41 9.5t-25.5 23t-13.5 29.5t-4 30v167h911zM163 247q-12 0 -21 -8.5t-9 -21.5t9 -21.5t21 -8.5q13 0 22 8.5t9 21.5t-9 21.5t-22 8.5zM316 123q-8 -26 -14 -48q-5 -19 -10.5 -37t-7.5 -25t-3 -15t1 -14.5
t9.5 -10.5t21.5 -4h37h67h81h80h64h36q23 0 34 12t2 38q-5 13 -9.5 30.5t-9.5 34.5q-5 19 -11 39h-368zM336 498v228q0 11 2.5 23t10 21.5t20.5 15.5t34 6h188q31 0 51.5 -14.5t20.5 -52.5v-227h-327z" />
    <glyph glyph-name="weixin" unicode="&#xe63f;" 
d="M782 237q-16 0 -27.5 11.5t-11.5 28t11.5 28t27.5 11.5t27.5 -11.5t11.5 -28t-11.5 -28t-27.5 -11.5zM582 237q-16 0 -27.5 11.5t-11.5 28t11.5 28t27.5 11.5t27.5 -11.5t11.5 -28t-11.5 -28t-27.5 -11.5zM960 181q0 95 -74 164.5t-182 75.5q-12 1 -20 1
q-115 0 -196 -70.5t-81 -170.5q0 -29 8 -58q23 -79 97.5 -131t171.5 -52q65 0 123 25l62 -42l1.5 -1t4 -1.5t4.5 0t3.5 4t1.5 9.5l-18 66q44 34 69 81t25 100zM260 452q-16 0 -27.5 11.5t-11.5 27.5t11.5 27.5t27.5 11.5t27.5 -11.5t11.5 -27.5t-11.5 -27.5t-27.5 -11.5z
M504.5 530q16.5 0 27.5 -11.5t11 -27.5t-11 -27.5t-27.5 -11.5t-27.5 11.5t-11 27.5t11 27.5t27.5 11.5zM684 442q6 0 17 -1q-17 102 -107 170t-209 68q-87 0 -161 -37t-117 -101.5t-43 -139.5q0 -64 30.5 -119.5t84.5 -94.5l-24 -89q0 -1 -0.5 -3t-0.5 -7t2.5 -6.5t7 -3
t14.5 2.5l88 61q57 -20 119 -20h4.5h5.5q-8 29 -8 59q0 108 87 184.5t210 76.5v0z" />
    <glyph glyph-name="zhifubao" unicode="&#xe606;" horiz-adv-x="1037" 
d="M666 198q31 56 55 118.5t32 96.5l9 34h-13v0h-109h-115v90h281v38h-281v135h-128v-135h-256v-38h256v-90h-218v-38h442q0 -7 -7 -13q0 -45 -57 -160q-48 19 -91.5 32.5t-78 22t-66.5 12.5t-55 5.5t-46 -0.5t-36.5 -4.5t-28.5 -7.5t-21 -8t-15.5 -8t-9.5 -6
q-45 -31 -69.5 -67t-28 -68.5t3.5 -64t23.5 -57t34 -44.5t33 -29t22.5 -9q286 -63 480 167q6 -7 19 -7q71 -38 410 -198v192q-9 0 -21.5 2t-31.5 6.5t-36 9t-43.5 13t-45 14t-50 16l-48 16t-50 16.5t-45.5 16zM499 140q-45 -58 -98.5 -92.5t-96 -45t-87 -9t-65.5 7t-37 11.5
q-28 7 -46.5 34t-22 59t12.5 64t50 48q57 18 114 20t110.5 -11t93 -28.5t85.5 -38.5z" />
    <glyph glyph-name="icongb" unicode="&#xe62c;" 
d="M665 456q-11 10 -25.5 10t-25.5 -10l-103 -104l-104 104q-10 10 -25 10t-25 -10.5t-10 -25t10 -25.5l103 -103l-103 -104q-10 -10 -10 -25t10 -25t25 -10t25 10l104 103l103 -103q11 -10 25.5 -10t25 10t10.5 25t-10 25l-104 104l104 103q10 11 10 25.5t-10 25.5v0v0z
M511 748q-91 0 -173.5 -35.5t-142 -95t-95 -142t-35.5 -173.5t35.5 -173.5t95 -142t142 -95t173.5 -35.5t173.5 35.5t142 95t95 142t35.5 173.5t-35.5 173.5t-95 142t-142 95t-173.5 35.5v0v0zM511 -73q-102 0 -188 50.5t-136.5 136.5t-50.5 188t50.5 188t136.5 136.5
t188 50.5t188 -50.5t136.5 -136.5t50.5 -188t-50.5 -188t-136.5 -136.5t-188 -50.5v0v0z" />
    <glyph glyph-name="jubao" unicode="&#xe634;" 
d="M905 595q-33 6 -70.5 19t-60.5 23t-65.5 30t-56.5 26q-10 5 -40.5 22.5t-55 25t-56.5 7.5q-24 -2 -48 -13q-33 -14 -97 -47.5t-120.5 -57t-115.5 -35.5q0 -94 12 -176t31.5 -145t50.5 -119.5t62 -96.5t75 -80t80 -66.5t84 -58.5q180 98 286 290.5t105 451.5v0zM513 -39
q-90 45 -160.5 136t-109 209.5t-36.5 242.5q56 10 119.5 38t111 50.5t74.5 22.5q33 0 82 -23.5t109 -51.5t113 -36q2 -98 -22 -192t-66.5 -169.5t-97.5 -134t-117 -92.5v0zM469 529v-261h87v261h-87v0zM469 158h87v65h-87v-65v0zM469 158z" />
    <glyph glyph-name="lianxiwomen" unicode="&#xe614;" 
d="M716 207q-24 0 -63.5 -20t-59 -20t-74.5 46.5t-102.5 101.5t-47.5 76q0 22 20.5 55.5t20.5 56.5q0 17 -32 74t-75 109t-66 52q-26 0 -67 -25.5t-74 -67.5t-33 -81q0 -59 35 -136t91.5 -154t132 -152t154.5 -132.5t161.5 -93t150.5 -35.5q60 0 116.5 53t56.5 120
q0 15 -51.5 57.5t-111.5 79t-82 36.5zM757 -99q-49 1 -118 34t-140.5 85.5t-143 122t-127 140.5t-90 143t-34.5 128q0 37 25 72t54 54t46 17q28 -3 84 -80.5t56 -103.5q0 -13 -7.5 -35t-14 -40t-8 -43t9.5 -45q18 -35 108 -129.5t116 -94.5q19 0 69.5 20.5t73.5 20.5
q21 0 71 -29t91.5 -63.5t41.5 -48.5q0 -42 -26 -71.5t-62 -41.5t-75 -12z" />
    <glyph glyph-name="20150320113932110easyiconnet" unicode="&#xe600;" 
d="M825 500l-395 -395l-191 191q-6 6 -14.5 6t-14.5 -6t-6 -14.5t6 -14.5l205 -205q6 -6 14.5 -6t14.5 6l410 409q6 6 6 14.5t-6 14.5t-14.5 6t-14.5 -6z" />
    <glyph glyph-name="daichuli" unicode="&#xe629;" 
d="M502 208h-400q-16 0 -27 -11.5t-11 -27t11 -27t27 -11.5h402q-5 27 -5 48q0 2 3 29zM631 411h-529q-16 0 -27 -11t-11 -27t11 -27t27 -11h446q32 46 83 76zM102 539h731q16 0 27 11t11 27t-11 27t-27 11h-731q-16 0 -27 -11t-11 -27t11 -27t27 -11zM767 373
q-80 0 -136 -57t-56 -137t56 -137t136 -57t136 57t56 137t-56 137t-136 57zM879 131h-110q-15 0 -25.5 10.5t-10.5 25.5v113q0 15 10.5 25.5t25.5 10.5h3q15 0 25.5 -10.5t10.5 -25.5v-73h71q15 0 25.5 -10.5t10.5 -24.5v-5q0 -15 -10.5 -25.5t-25.5 -10.5z" />
    <glyph glyph-name="gerenzhongxin" unicode="&#xe60f;" 
d="M85 -147h854v25v137q0 5 -2.5 10.5t-6.5 9.5t-8.5 8t-9.5 7t-9 5t-6.5 3l-2.5 1l-259 134q47 37 90 104.5t43 106.5v128q0 28 -20.5 64t-54.5 69t-82.5 56.5t-98.5 25.5q-44 -1 -88.5 -24t-76 -56.5t-51 -70t-19.5 -64.5v-128q0 -36 44 -104.5t91 -106.5l-283 -134
q-5 -2 -12.5 -6t-19.5 -15.5t-12 -22.5v-152v-2v-8zM128 -3q4 4 15.5 14.5t18.5 13.5l247 115q35 13 39 49q3 23 -8 32q-39 31 -79.5 90.5t-40.5 92.5v128q0 20 15 48.5t40 56.5t62 48t75 21q39 -2 79 -22t69 -47.5t47 -56.5t18 -48v-128q0 -34 -39 -93t-79 -90
q-12 -10 -10 -32q1 -8 16.5 -26.5t24.5 -22.5l212 -110l1 -1q6 -2 24 -15.5t21 -16.5v-102h-768v102z" />
    <glyph glyph-name="shenqing" unicode="&#xe610;" 
d="M890 -212h-763q-52 0 -89.5 37.5t-37.5 89.5v763q0 54 38 94t90 40h512v-64h-512q-26 0 -45 -21.5t-19 -48.5v-763q0 -26 18.5 -44.5t44.5 -18.5h763q27 0 48.5 19t21.5 45v512h64v-512q0 -52 -40.5 -90t-93.5 -38v0zM510 96q-12 -12 -33 -16l-278 -138
q-23 -10 -38.5 5.5t-6.5 39.5l138 279q4 20 16 33l494 494q19 19 45.5 19t44.5 -19l113 -112q18 -19 18 -45t-18 -45l-495 -495v0zM215 26q-6 -11 2.5 -19.5t19.5 -3.5l172 104l-90 91l-104 -172v0zM375 231l68 -67l1 -2l21 -21l360 360l-113 112l-359 -359q6 -6 11 -11.5
t11 -11.5v0zM937 658l-67 68q-10 9 -23 9t-22 -9l-66 -66l111 -114l67 67q10 10 10 23t-10 22v0zM937 658z" />
    <glyph glyph-name="iconfontkulian" unicode="&#xe602;" 
d="M512 812q-104 0 -199 -40.5t-163.5 -109t-109 -163.5t-40.5 -199q0 -139 68.5 -257t186.5 -186.5t257 -68.5t257 68.5t186.5 186.5t68.5 257q0 104 -40.5 199t-109 163.5t-163.5 109t-199 40.5zM512 -130q-117 0 -216 57.5t-156.5 156.5t-57.5 216t57.5 216t156.5 156.5
t216 57.5t216 -57.5t156.5 -156.5t57.5 -216t-57.5 -216t-156.5 -156.5t-216 -57.5zM309 371zM214 371q0 39 27.5 67t67 28t67 -28t27.5 -67t-27.5 -66.5t-67 -27.5t-67 27.5t-27.5 66.5zM715 371zM621 371q0 39 27.5 67t67 28t67 -28t27.5 -67t-27.5 -66.5t-67 -27.5
t-67 27.5t-27.5 66.5zM364 26q67 49 148 49q82 0 148 -49q13 -10 29 -7.5t26 15.5t7.5 29.5t-15.5 25.5q-87 65 -195 65t-195 -65q-13 -9 -15.5 -25.5t7.5 -29.5t26 -15.5t29 7.5z" />
    <glyph glyph-name="zhifu" unicode="&#xe63c;" horiz-adv-x="1025" 
d="M934 120v416q0 67 -47.5 114.5t-114.5 47.5h-520q-67 0 -114.5 -47.5t-47.5 -114.5v-520q0 -67 47.5 -114.5t114.5 -47.5h520q59 0 104 38t55 96q-223 96 -326 145q-59 -71 -122 -107t-146 -36q-87 0 -140 46.5t-46 113.5q3 20 9 38t21.5 39t38.5 35t61.5 21t87.5 3
q22 -2 43 -5.5l33 -5.5t34.5 -8.5t28 -8t34.5 -11.5t33 -11q30 54 47 115h-327v32h162v59h-198v35h198v84q2 14 16 14h81v-98h211v-35h-211v-59h172q-23 -95 -70 -175q23 -8 92 -30t128 -40l58 -18v0zM324 46q-44 0 -74.5 12t-43 31t-17 36t-2.5 31q6 28 35 51.5t76 23.5
q108 0 234 -62q-95 -123 -208 -123z" />
    <glyph glyph-name="dizhi" unicode="&#xe67c;" 
d="M512 284q-60 0 -102 42.5t-42 102t42 101.5t102 42t102 -42t42 -101.5t-42 -102t-102 -42.5zM512 540q-46 0 -79 -32.5t-33 -79t33 -79.5t79 -33t79 33t33 79.5t-33 79t-79 32.5zM512 -164q-33 0 -91 71.5t-111.5 168t-93.5 200t-40 162.5q0 88 45 163.5t122.5 119
t168.5 43.5t168.5 -43.5t122.5 -119t45 -163.5q0 -59 -40 -162.5t-93.5 -200t-111.5 -168t-91 -71.5zM512 732q-126 0 -215 -86t-89 -208q0 -63 40.5 -164t93 -189t102.5 -152.5t68 -64.5t68 64.5t102.5 152.5t93 189t40.5 164q0 122 -89 208t-215 86z" />
    <glyph glyph-name="wodeshouru" unicode="&#xe61c;" 
d="M635.5 389.5q-7.5 6.5 -17.5 6t-17 -8.5l-92 -108h-26l-95 110q-6 8 -16.5 8.5t-18 -6t-8.5 -16.5t6 -18l67 -78h-75q-8 0 -14.5 -7t-6.5 -17t6.5 -17.5t14.5 -7.5h130v-91h-130q-8 0 -14.5 -7.5t-6.5 -17.5t6.5 -17.5t14.5 -7.5h130v-142q0 -9 7.5 -15t17.5 -6t17 6
t7 15v142h130q9 0 15 7.5t6 17.5t-6 17.5t-15 7.5h-130v91h130q9 0 15 7.5t6 17.5t-6 17t-15 7h-78l64 76q7 8 6 18t-8.5 16.5zM392 616q-45 40 -91 102q72 -20 121 -20q48 0 90 13q87 26 144 36t97 1q-42 -53 -143 -132h81q100 84 125 134l11 23l-24 11q-40 19 -93 19
q-71 0 -212 -43q-35 -11 -76 -11q-25 0 -55 3t-55.5 7t-47 8t-34 6.5l-12.5 2.5q3 -8 10 -23t33.5 -57.5t60.5 -79.5h70zM691 536h-88q10 -8 35 -25q29 -20 46.5 -32.5t50.5 -39t53.5 -48t46.5 -54t40.5 -62.5t24 -68.5t7.5 -77.5q-3 -51 -18.5 -92t-38.5 -69.5t-57 -49.5
t-68 -33t-76 -19.5t-77 -9.5t-76 -2h-7q-229 0 -323 96q-71 74 -67 205q1 42 14 82.5t30.5 71.5t46 62.5t51 52t56 44t50 33.5t43.5 26q2 1 7.5 4t7.5 5h-98q-253 -163 -259 -380q-5 -152 81 -241q109 -112 360 -112h7q27 0 44.5 0.5t55.5 3.5t65.5 8.5t66.5 17t67 27
t59.5 40.5t51.5 56t34.5 75t17.5 96q3 57 -15 112.5t-44 96.5t-67 82.5t-71.5 65.5t-69.5 52z" />
    <glyph glyph-name="yanjing" unicode="&#xe61a;" 
d="M990 323q-222 275 -473 275q-58 0 -116 -15.5t-102.5 -37t-89.5 -53t-73 -56.5t-56 -55t-36 -39.5t-15 -19.5l-12 -16l12 -16q228 -278 479 -278q79 0 158 29t132 65.5t101 82.5t65.5 68t25.5 34l12 17zM514 100q-84 0 -144 60t-60 144.5t60 144.5t144 60t144 -60
t60 -144q0 -85 -59.5 -145t-144.5 -60zM85 306q18 21 40.5 44t59 55.5t84.5 62t97 47.5q-50 -35 -79.5 -90.5t-29.5 -120.5q0 -66 31.5 -123.5t85.5 -92.5q-148 53 -289 218zM668 98q48 36 76 90t28 117q0 65 -30.5 121.5t-82.5 91.5q142 -52 276 -212q-17 -21 -38 -43.5
t-55.5 -54.5t-80 -61.5t-93.5 -48.5zM514 305zM457 304.5q0 23.5 17 40t40.5 16.5t40 -16.5t16.5 -40t-16.5 -40t-40 -16.5t-40.5 16.5t-17 40z" />
    <glyph glyph-name="icon052" unicode="&#xe63e;" 
d="M924.5 287q-7.5 0 -13 5.5t-5.5 12.5q0 107 -52.5 198t-143.5 144t-198 53t-198 -53t-143.5 -144t-52.5 -198q0 -7 -5.5 -12.5t-13 -5.5t-13 5.5t-5.5 12.5q0 117 58 216.5t157 157t216 57.5t216 -57.5t157 -157t58 -216.5q0 -7 -5.5 -12.5t-13 -5.5zM212 29h-53
q-32 0 -55 22.5t-23 55.5v187q0 33 23 56t55 23h53q32 0 55 -23t23 -56v-187q0 -33 -23 -55.5t-55 -22.5zM159 336q-17 0 -29 -12t-12 -30v-187q0 -18 12 -30t29 -12h53q17 0 29.5 12t12.5 30v187q0 18 -12.5 30t-29.5 12h-53zM865 29h-53q-32 0 -55 22.5t-23 55.5v187
q0 33 23 56t55 23h53q32 0 55 -23t23 -56v-187q0 -33 -23 -55.5t-55 -22.5zM812 336q-17 0 -29.5 -12t-12.5 -30v-187q0 -18 12.5 -30t29.5 -12h53q17 0 29 12t12 30v187q0 18 -12 30t-29 12h-53zM615 -103q-9 0 -15 8q-4 6 -2.5 13.5t8.5 11.5l201 132q6 4 13.5 2.5
t11.5 -8t2.5 -13.5t-7.5 -11l-202 -133q-4 -2 -10 -2zM570 -160h-90q-26 0 -44.5 18.5t-18.5 44.5v6q0 26 18.5 44.5t44.5 18.5h90q27 0 45.5 -18.5t18.5 -44.5v-6q0 -26 -18.5 -44.5t-45.5 -18.5zM480 -64q-11 0 -18.5 -8t-7.5 -19v-6q0 -11 7.5 -19t18.5 -8h90
q12 0 19.5 8t7.5 19v6q0 11 -7.5 19t-19.5 8h-90z" />
    <glyph glyph-name="weidenglu" unicode="&#xe61e;" horiz-adv-x="1518" 
d="M655 162q74 82 74 193q0 118 -84 202t-202.5 84t-202.5 -84t-84 -202q0 -111 74 -193q-96 -56 -153.5 -153.5t-57.5 -213.5v-1h53v1q0 75 29 144q28 67 79 118q41 41 92 67q76 -56 170.5 -56t170.5 56q51 -26 92 -67q51 -51 79 -118q29 -68 29 -144v-1h53v1
q0 116 -57.5 213.5t-153.5 153.5zM442.5 121q-47.5 0 -90.5 18q-42 18 -74.5 50.5t-50.5 74.5q-18 43 -18 90.5t18 91.5q18 41 50 74q33 32 75 50q43 18 90.5 18t91.5 -18q41 -18 74 -50q32 -32 50 -74q18 -44 18 -91.5t-18 -90.5q-18 -42 -50.5 -74.5t-73.5 -50.5
q-44 -18 -91.5 -18zM1133 567l-152 -188h152v-47h-238v32l155 187h-144v47h227v-31v0zM1491 765l-181 -223h180v-55h-283v38l185 222h-171v55h270v-37v0z" />
    <glyph glyph-name="select" unicode="&#xe607;" 
d="M512 -172q-92 0 -175 35q-80 34 -142.5 96t-96.5 143q-35 83 -35 174.5t35 174.5q34 80 96.5 142.5t142.5 96.5q83 35 174.5 35t174.5 -35q81 -34 143 -96.5t96 -142.5q35 -83 35 -175t-35 -176q-35 -81 -98 -143q-12 -12 -28.5 -11.5t-28.5 12t-12 28.5t12 29
q53 52 81 119.5t28 141.5q0 100 -49 184.5t-134 134t-184.5 49.5t-184.5 -49.5t-134 -134t-49 -184t49 -184.5t134 -134.5t185 -49.5q71 0 136 27q16 6 31.5 -0.5t21.5 -22t-0.5 -31t-22.5 -21.5q-80 -32 -166 -32zM694 382l-218 -218l-134 135q-12 12 -29 12t-28.5 -12
t-11.5 -29t11 -29l160 -159v0q13 -13 32.5 -13t33.5 13q1 2 3 3q0 1 1 1l236 239q12 12 12.5 28.5t-11.5 28.5t-28.5 12t-28.5 -12z" />
    <glyph glyph-name="icon" unicode="&#xe615;" 
d="M839 674v0l-2 2v0l-154 151v0v0v0q-6 6 -14 8v0h-2h-1h-0.5h-1.5h-1v0v0h-463q-11 0 -19.5 -8t-8.5 -20v-841q0 -12 8.5 -20t19.5 -8h618q11 0 19.5 8t8.5 20v690q0 10 -7 18zM691 740l58 -56h-58v56zM790 -6h-561v785h406v-123q0 -12 8.5 -20t19.5 -8h127v-634zM711 382
h-389q-12 0 -20 -8.5t-8 -20t8 -19.5t20 -8h389q11 0 19.5 8t8.5 19.5t-8.5 20t-19.5 8.5zM294 471.5q0 -11.5 8 -19.5t20 -8h389q11 0 19.5 8t8.5 19.5t-8.5 20t-19.5 8.5h-389q-12 0 -20 -8.5t-8 -20zM711 264h-389q-12 0 -20 -8t-8 -20t8 -20t20 -8h389q11 0 19.5 8
t8.5 20t-8.5 20t-19.5 8zM711 146h-389q-12 0 -20 -8t-8 -19.5t8 -20t20 -8.5h389q11 0 19.5 8.5t8.5 20t-8.5 19.5t-19.5 8z" />
    <glyph glyph-name="shibai" unicode="&#xe64d;" 
d="M711 608q-8 0 -15 -6h-1l-182 -182l-178 179v0q-8 9 -20 9q-10 0 -17.5 -7.5t-7.5 -18.5q0 -13 11 -21v0l73 -73h-1l104 -104l-97 -97v-1l-79 -78q-11 -8 -11 -22q0 -10 7.5 -17.5t17.5 -7.5q9 0 17 6v-1l181 181l180 -179v0q7 -7 17 -7q11 0 18.5 7.5t7.5 18.5t-8 18
l-81 81v1l-97 97l103 104v0l74 74q3 2 4 4l2 2h-1q5 6 5 14q0 11 -7.5 18.5t-18.5 7.5zM513 894q-104 0 -198.5 -40t-163 -108.5t-109 -163t-40.5 -198.5t40.5 -198.5t109 -163t163 -109t198.5 -40.5t198.5 40.5t163 109t109 163t40.5 198.5t-40.5 198.5t-109 163
t-163 108.5t-198.5 40zM513.5 -76q-93.5 0 -179 36.5t-147 98t-97.5 146.5t-36 178.5t36 178.5t97.5 147t147 98t179 36t178.5 -36t146.5 -98t98 -147t36.5 -178.5t-36.5 -178.5t-98 -146.5t-146.5 -98t-178.5 -36.5z" />
    <glyph glyph-name="dagou1" unicode="&#xe609;" 
d="M379 77l-306 334q-9 9 -8.5 22t10.5 22l27 24q9 9 22 8.5t22 -10.5l249 -272q8 -8 15 0l468 491q9 10 22 10t22 -8l27 -25q9 -9 9.5 -22t-8.5 -23l-526 -552q-9 -10 -22.5 -9.5t-22.5 10.5z" />
    <glyph glyph-name="a138" unicode="&#xe643;" 
d="M512 -23q110 0 204 54.5t148.5 148.5t54.5 204t-54.5 204t-148.5 148.5t-204 54.5t-204 -54.5t-148.5 -148.5t-54.5 -204t54.5 -204t148.5 -148.5t204 -54.5zM512 -64q-91 0 -174 35.5t-143 95.5t-95.5 143t-35.5 174t35.5 174t95.5 143t143 95.5t174 35.5t174 -35.5
t143 -95.5t95.5 -143t35.5 -174t-35.5 -174t-95.5 -143t-143 -95.5t-174 -35.5v0v0zM768 384q0 106 -75 181t-181 75t-181 -75t-75 -181t75 -181t181 -75t181 75t75 181v0v0v0zM291 384q0 34 10 68q80 2 150 31.5t120 80.5q60 -61 143 -90q19 -43 19 -90q0 -91 -65 -156
t-156.5 -65t-156 65t-64.5 156v0v0v0zM429 451q-19 0 -32 -13t-13 -31.5t13 -31.5t32 -13q14 0 25.5 7.5t15.5 20.5l-32 17l33 16q-5 12 -16.5 20t-25.5 8v0v0v0zM598 361q14 0 25.5 8t16.5 21l-33 16l33 17q-5 12 -16.5 20t-25.5 8q-18 0 -31.5 -13t-13.5 -31.5t13.5 -32
t31.5 -13.5v0v0v0zM818 428q-11 119 -99 200.5t-207 81.5t-207 -81.5t-99 -200.5q-20 -7 -20 -27v-57q0 -12 8.5 -21t21 -9t21.5 9t9 21v57q0 18 -17 26q12 110 92.5 185t190 75t190.5 -75t93 -185q-17 -8 -17 -26v-57q0 -20 19 -28q-20 -87 -86.5 -149t-155.5 -76
q-9 14 -31 14q-15 0 -25 -7t-10 -16.5t10 -16.5t25 -7q13 0 23 6.5t11 15.5q93 15 161.5 79.5t89.5 154.5q12 0 20.5 9t8.5 21v57q0 20 -20 27v0v0v0z" />
    <glyph glyph-name="xiangyou" unicode="&#xe60e;" 
d="M572 2l385 385l-381 381l-45 -45l304 -304h-771v-64h771l-308 -308zM572 2z" />
    <glyph glyph-name="shibai1" unicode="&#xe63b;" 
d="M506.5 828q91.5 0 175 -35.5t144 -96t96 -144t35.5 -175t-35.5 -175t-96 -144t-144 -96.5t-175 -36t-175 36t-144 96.5t-96.5 144t-36 175t36 175t96.5 144t144 96t175 35.5zM506 880q-102 0 -195 -40t-160 -107t-107 -160t-40 -195.5t40 -195.5t107 -160t160 -107
t195 -40t195 40t160.5 107t107 160t39.5 195.5t-39.5 195.5t-107 160t-160.5 107t-195 40v0v0zM292 473q0 -27 19 -46.5t46.5 -19.5t47 19.5t19.5 47t-19.5 46.5t-47 19t-46.5 -19t-19 -47v0zM589 473q0 -27 19 -46.5t46.5 -19.5t47 19.5t19.5 47t-19.5 46.5t-47 19
t-46.5 -19t-19 -47v0zM684 111q-14 0 -22 12q-25 40 -67 63t-90 23q-47 0 -88 -22t-67 -62q-6 -9 -16 -11t-19 4t-11 16t3 19q33 51 85.5 79.5t112.5 28.5q62 0 115 -29.5t86 -81.5q5 -9 2.5 -19.5t-10.5 -15.5q-7 -4 -14 -4v0z" />
    <glyph glyph-name="yiwancheng" unicode="&#xe611;" 
d="M746 635h-73v16v0q0 23 -15.5 39t-37.5 16h-36v36h-143v-36h-35q-22 0 -38.5 -16t-16.5 -39v0v-16h-71q-30 0 -51 -21.5t-21 -50.5v-466q0 -29 21 -50t51 -21h466q29 0 49.5 20.5t20.5 50.5v466q0 29 -20.5 50.5t-49.5 21.5zM477 706v0h71v0v-35v0h37h35q7 0 12 -6t5 -14
v-17v-35v-36h-250v36v35v17q0 8 6 14t13 6h35h36v0v35zM781 97q0 -15 -10 -25t-25 -10h-466q-15 0 -26 10t-11 25v466q0 14 11 25t26 11h71v-72h322v72h73q14 0 24.5 -10.5t10.5 -25.5v-466zM462 256l-89 87l-25 -26l114 -111l216 210l-25 25z" />
    <glyph glyph-name="icon02" unicode="&#xe62d;" 
d="M855 781h-686q-41 0 -70 -29t-29 -70v-596q0 -41 29 -70t70 -29h686q41 0 70 29t29 70v596q0 41 -29 70t-70 29zM898 86q0 -18 -12.5 -30.5t-30.5 -12.5h-686q-18 0 -30.5 12.5t-12.5 30.5v596q0 18 12.5 30.5t30.5 12.5h686q18 0 30.5 -12.5t12.5 -30.5v-596v0zM202 644
h620v-58h-620v58zM540 470h282v-58h-282v58zM540 352h282v-83h-282v83zM540 187h231v-58h-231v58zM202 469h268v-340h-268v340z" />
    <glyph glyph-name="xiugaimima" unicode="&#xe65d;" 
d="M835 478h-9v112q0 126 -92 216t-222 90t-222 -90t-92 -216v-112h-9q-39 0 -66.5 -27t-27.5 -66v-420q0 -39 27.5 -66t66.5 -27h646q39 0 66.5 27t27.5 66v420q0 39 -27.5 66t-66.5 27v0zM273 590q0 95 70 163t169 68t169 -68t70 -163v-112h-478v112v0zM854 -35
q0 -8 -5.5 -13t-13.5 -5h-646q-8 0 -13.5 5t-5.5 13v420q0 8 5.5 13t13.5 5h646q8 0 13.5 -5t5.5 -13v-420v0zM854 -35zM512 345q-44 0 -75 -31t-31 -74q0 -34 19 -60.5t50 -38.5v-69q0 -16 10.5 -27t26.5 -11t26.5 11t10.5 27v69q31 12 50 38.5t19 60.5q0 43 -31 74t-75 31
v0zM512 270q13 0 22 -9t9 -21.5t-9 -21.5t-22 -9t-22 9t-9 21.5t9 21.5t22 9v0zM512 270z" />
    <glyph glyph-name="chacha" unicode="&#xe638;" 
d="M573 384l436 438q13 13 13 31t-13 30.5t-31 12.5t-30 -13l-436 -437l-436 437q-12 13 -30 13t-31 -12.5t-13 -30.5t13 -31l436 -438l-436 -438q-13 -13 -13 -31t13 -30.5t31 -12.5t30 13l436 437l436 -437q12 -13 30 -13t31 12.5t13 30.5t-13 31z" />
    <glyph glyph-name="iconfontzhizuobiaozhun12" unicode="&#xe60b;" 
d="M646 425h-50l-19 14q-3 3 -8 4h-2q-4 0 -7.5 -2t-3.5 -6l-20 -46l-29 88q-2 7 -11 7q-8 0 -11 -6l-35 -83l-34 27q-4 3 -9 2h-51v-16h46l44 -34q4 -3 9 -3q8 0 11 6l28 67l29 -88q2 -7 11 -7q10 0 12 7l26 63l10 -8q1 -1 3 -2q3 -1 6 -1h55v17v0zM654 225l-45 67
q-3 4 -6 6q42 35 52 89q12 64 -24.5 118t-100.5 66t-117.5 -24.5t-66 -100.5t24 -117.5t100.5 -66.5q54 -10 102 15q1 -3 3 -7l46 -67q4 -7 12 -8.5t15 3t8.5 12.5t-3.5 15v0zM478 301q-47 9 -74.5 49.5t-18.5 88.5t49.5 75.5t88.5 18t75.5 -50t18 -88.5t-50 -75t-88.5 -18
v0zM478 301zM804 179q1 1 1 3q30 42 46.5 95.5t16.5 106.5q0 97 -47.5 179t-129.5 129.5t-179 47.5t-179 -47.5t-129.5 -129.5t-47.5 -179t47.5 -179t129.5 -129.5t179 -47.5q109 0 199 60l1 1v0v0q7 5 7 15q0 7 -5 12.5t-13 5.5q-6 0 -11 -5q-79 -54 -178 -54
q-87 0 -161 43t-117 117t-43 161t43 161t117 117t161 43t161 -43t117 -117t43 -161q0 -106 -58 -183v0q-3 -5 -3 -11q0 -7 5 -12.5t13 -5.5t13 7v0h0.5h0.5z" />
    <glyph glyph-name="weixiuzhong11" unicode="&#xe6b6;" 
d="M184 96q-16 0 -25 12q-46 58 -70 128q-25 71 -25 148q0 91 35 174q34 81 96 143t143 96q83 35 174 35q20 0 28.5 -18t-3.5 -34l-128 -160q-8 -10 -21.5 -11.5t-23.5 6.5t-11.5 21.5t6.5 23.5l81 101q-116 -22 -200 -105q-54 -55 -83 -125t-29 -147q0 -66 22 -127
q20 -59 59 -109q8 -11 6.5 -24t-11.5 -21q-9 -7 -20 -7zM512 -64q-20 0 -28.5 18t3.5 34l128 160q8 10 21.5 11.5t23.5 -6.5t11.5 -21.5t-6.5 -23.5l-81 -101q116 22 200 105q54 55 83 125t29 147q0 66 -22 127q-20 59 -59 109q-8 11 -6.5 24t12 21t23.5 6.5t21 -11.5
q46 -59 70 -128q25 -71 25 -148q0 -91 -35 -174q-34 -81 -96 -143t-143 -96q-83 -35 -174 -35zM351 127q-14 0 -23 9l-64 64q-9 9 -9 22.5t9 22.5l151 151v51q0 88 57 139q21 19 49.5 31t52 16.5t49.5 5.5t35.5 0.5t15.5 -1.5q20 -2 26.5 -21t-7.5 -33l-72 -72l19 -19l72 72
q14 14 33 7.5t21 -26.5q1 -6 1.5 -15.5t-0.5 -35.5t-5.5 -49t-16.5 -52t-31 -50q-51 -57 -139 -57h-51l-151 -151q-9 -9 -22 -9zM332 223l19 -19l137 137q9 10 23 10h64q59 0 91 35q24 28 33 76l-36 -37q-10 -9 -23 -9t-23 9l-64 64q-9 10 -9 23t9 23l37 37q-48 -9 -76 -34
q-35 -32 -35 -91v-64q0 -13 -10 -23z" />
    <glyph glyph-name="shouyeshouye" unicode="&#xe622;" 
d="M922 377l-413 386l-413 -385q-6 -5 -6.5 -13.5t5.5 -14.5t14 -6.5t14 5.5l386 359l385 -360q6 -5 14 -5q9 0 15 6q5 6 5 14t-6 14v0zM922 377zM796 369q-9 0 -14.5 -6t-5.5 -14v-306h-160v213h-214v-213h-160v306q0 8 -6 14t-14 6t-14 -6t-6 -14v-346h240v213h134v-213
h240v346q0 8 -6 14t-14 6v0zM796 369zM656 656h120v-107q0 -8 5.5 -14t14 -6t14.5 6t6 14v147h-160q-9 0 -14.5 -6t-5.5 -14.5t5.5 -14t14.5 -5.5v0zM656 656z" />
    <glyph glyph-name="fapiao" unicode="&#xe623;" 
d="M735 662h-446q-11 0 -19 -8t-8 -19.5t8 -19.5t19 -8h446q11 0 19 8t8 19.5t-8 19.5t-19 8zM735 495h-446q-11 0 -19 -8t-8 -19.5t8 -19.5t19 -8h446q11 0 19 8t8 19.5t-8 19.5t-19 8zM735 328h-446q-11 0 -19 -8t-8 -19.5t8 -19.5t19 -8h446q11 0 19 8t8 19.5t-8 19.5
t-19 8zM512 161h-223q-11 0 -19 -8t-8 -19.5t8 -19.5t19 -8h223q12 0 20 8t8 19.5t-8 19.5t-20 8zM785 829h-546q-37 0 -63 -23.5t-26 -56.5v-730q0 -33 26 -56.5t63 -23.5h356h56h20l203 185v625q0 33 -26 56.5t-63 23.5zM651 -4v82q0 11 8 19.5t20 8.5h93zM818 161h-139
q-35 0 -59.5 -24t-24.5 -59v-84h-356q-14 0 -23.5 7.5t-9.5 17.5v730q0 10 9.5 17.5t23.5 7.5h546q13 0 23 -7.5t10 -17.5v-588z" />
    <glyph glyph-name="shenqingrenzheng" unicode="&#xe68c;" 
d="M511 -128q-59 0 -133 38t-142 103q-76 72 -117 152.5t-41 155.5v401q0 14 10 24.5t25 11.5h40v0q84 3 167 36q84 35 146 78v0l24 17q21 15 42 0l24 -17v0q54 -40 146 -78q83 -33 167 -36v0h40q14 -1 24.5 -11.5t10.5 -24.5v-401q0 -75 -41 -155.5t-117 -152.5
q-68 -65 -142 -103t-133 -38v0zM150 686v-365q0 -60 35.5 -127t99.5 -129q57 -54 119.5 -87.5t106.5 -33.5t106.5 33.5t119.5 87.5q65 62 100 129t35 127v365h-4q-12 1 -33 2.5t-69.5 12t-90.5 27.5q-95 38 -161 86v0l-3 2l-3 -2q-64 -47 -161 -86q-96 -39 -193 -42v0h-4v0z
M150 686zM463 229v0q-19 0 -32 13l-118 119q-14 13 -14 32t13.5 32.5t32.5 13.5t32 -14l86 -86l205 205q13 13 32 13t32.5 -13.5t13.5 -32t-14 -32.5l-237 -237q-13 -13 -32 -13v0zM463 229z" />
    <glyph glyph-name="kaixin" unicode="&#xe64e;" horiz-adv-x="1031" 
d="M880 746q-73 73 -167 111.5t-197.5 38.5t-197.5 -38.5t-167 -111t-112 -166t-39 -196.5t39 -196.5t112 -166t167 -111t197.5 -38.5t197.5 38.5t167 111.5q99 98 134 230t0 264t-134 230zM832 69q-63 -63 -145 -96.5t-172 -33.5t-171.5 33.5t-145 96.5t-97.5 144.5
t-34 170.5t34 170.5t97.5 144.5t145.5 96.5t171.5 33.5t171.5 -33.5t145 -96.5q86 -86 116.5 -200.5t0 -229t-116.5 -200.5zM332 575q-26 0 -45 -18.5t-19 -44.5t18.5 -44.5t45 -18.5t45 18.5t18.5 44.5t-18.5 44.5t-44.5 18.5v0v0v0v0zM699 575q-26 0 -44.5 -18.5
t-18.5 -44.5t18.5 -44t44.5 -18t44.5 18t18.5 44t-18.5 44.5t-44.5 18.5v0v0v0v0zM758 288q-20 0 -27 -18q-25 -68 -84.5 -109t-131.5 -41t-131.5 41t-84.5 109q-4 11 -15 16t-22 0.5t-16 -15t-1 -21.5q31 -84 104 -135q75 -53 166 -53t166 53q73 52 104 135q4 11 -1 21.5
t-16 15.5q-5 1 -10 1z" />
    <glyph glyph-name="fenpei" unicode="&#xe68b;" 
d="M147 127q0 13 -13 25q-4 5 -6.5 7t-7.5 4t-11 2q-13 0 -26 -12.5t-13 -25.5t13 -26t26 -13t25.5 13t12.5 26zM954 460q0 32 -19.5 51t-57.5 19h-327q0 19 7 26q9 19 19 38q10 10 19 38q7 20 7 52q0 40 -26 57q-19 13 -64 13q-13 0 -51 -77q-3 -8 -11 -23t-8 -22
q-6 -11 -15.5 -23.5t-25.5 -31.5t-23 -28q-15 -11 -27.5 -23.5t-21 -23t-9.5 -10.5q-43 -32 -83 -32h-19v-365h19q38 0 96 -19q19 -7 54 -19.5t55 -19.5q57 -19 102 -19q109 0 109 96v32q13 6 25.5 32t12.5 45q0 7 -1 12.5t-2.5 8.5l-4.5 9t-5 8q32 32 32 71q0 19 -6 32
q-3 6 -8 11t-5 8h192q32 0 51.5 19t19.5 58v0zM1024 460q0 -67 -45 -103q-36 -45 -102 -45h-96q0 -32 -19 -70v-26q0 -49 -32 -102q0 -85 -52 -128q-44 -45 -128 -45q-80 0 -185 39q-80 32 -128 32h-167q-32 0 -51 19q-9 9 -14 28t-5 36v365q0 32 19 51t51 19h167h13
q2 0 4 1.5t4 5t4 6.5v0l2 1l1 1l1 1l1 1l1 1l1 1v1l1 1h1l1 1l1 1l1 1l1 2v0q5 0 9 4t4 8q3 0 6 2t5 3l2 2l13 13q2 2 4 5.5t2 5.5v1q38 39 58 77q6 7 19 32q2 4 6 13.5t7 16t6 9.5q2 2 10 16.5t16 21.5q19 19 32 26q25 12 38 12q77 0 115 -38q45 -45 45 -109q0 -32 -13 -70
h211q67 0 103 -45q17 -21 25.5 -33t17 -32t8.5 -37v0z" />
    <glyph glyph-name="yijianfankui" unicode="&#xe616;" horiz-adv-x="1879" 
d="M1240 549v-532q0 -13 -9.5 -23t-23.5 -10h-604q-13 0 -22.5 10t-9.5 23v667q0 13 9.5 23t22.5 10h465q15 0 26.5 11t11.5 26t-10.5 25t-24.5 10h-460q-44 0 -75.5 -31t-31.5 -76v-664q0 -44 31.5 -75t75.5 -31h589q44 0 75.5 31t31.5 75v531q0 14 -10 23.5t-24 9.5
t-23.5 -9.5t-9.5 -23.5zM878 452h-213q-11 0 -19 8t-8 19v13q0 11 8 19t19 8h213q11 0 19 -8t8 -19v-13q0 -11 -8 -19t-19 -8zM1078 249h-413q-11 0 -19 8.5t-8 19.5v13q0 11 8 19t19 8h413q11 0 19 -8t8 -19v-13q0 -11 -8 -19.5t-19 -8.5zM1370 802l-341 -343q-8 -8 -19 -8
t-19 8l-9 9q-8 8 -8.5 19.5t7.5 19.5l342 343q8 8 19 8t19 -8l9 -9q8 -8 8 -19.5t-8 -19.5z" />
    <glyph glyph-name="shenhezhong" unicode="&#xe625;" horiz-adv-x="1056" 
d="M528 -128q-216 0 -364 148t-148 364t148 364t364 148t364 -148t148 -364t-148 -364t-364 -148zM528 832q-190 0 -319 -129t-129 -319t129 -319t319 -129t319 129t129 319t-129 319t-319 129zM755 262l-205 125v247q0 19 -19 19h-19q-9 0 -14 -6.5t-5 -12.5v-269
q0 -6 4 -12.5t9 -6.5l220 -138q11 -4 20.5 -1.5t15.5 7.5l12 20q-1 1 -6 13t-13 15v0z" />
    <glyph glyph-name="banxing" unicode="&#xe644;" horiz-adv-x="1000" 
d="M1000 508l-346 50l-154 314l-154 -314l-346 -50l250 -243l-59 -345l309 163l309 -163l-59 345zM500 160h-1l1 557l109 -221l244 -35l-176 -173l41 -243l-218 115v0z" />
    <glyph glyph-name="weibao" unicode="&#xe66c;" horiz-adv-x="1027" 
d="M787 31q8 -9 21 -9q12 0 20.5 9t8.5 21t-9 21q-8 8 -20 8t-20.5 -8.5t-8.5 -20.5t8 -21zM849 93.5q17 -17.5 17 -41.5t-17 -41t-41.5 -17t-41.5 17t-17 41t17 41.5t41.5 17.5t41.5 -17.5zM655 120v0l41 -41q0 -3 -2 -10q1 -5 -1 -10q-2 -26 7 -51.5t27 -43.5
q33 -33 84.5 -33.5t86.5 33.5q34 36 32 85t-36 83q-18 18 -43.5 27t-51.5 7q-4 -1 -9 -1h-1q-7 -2 -9 -2l-11 10v0l-72 73l-84 -84l42 -42v0zM697 330l107 -108q79 5 132 -48q49 -49 47 -119t-54 -122q-52 -53 -123.5 -56.5t-120.5 45.5q-53 53 -48 132l-107 108l167 168v0z
M336 629v0q14 37 6 81.5t-37 73.5q-48 47 -122 38l101 -100l-124 -124l-101 100q-9 -74 39 -121q29 -29 73.5 -37t81.5 6l41 -41v0l31 -31l83 82l-73 73h1zM325 391l-92 92q-49 -9 -95.5 4.5t-81.5 48.5q-43 43 -53 104.5t14 115.5q1 10 8 18q9 8 21 8t20 -8l104 -104l41 42
l-103 103q-9 9 -9 21t9 20q7 8 18 9q54 24 115 14t105 -54q35 -35 48.5 -81.5t3.5 -94.5l93 -93zM178 84l290 290l21 -21l-290 -289zM220 43l289 290l21 -21l-290 -290zM603 401l-47 47q-11 12 -27.5 12t-28.5 -11l-402 -403q-12 -11 -11.5 -27.5t12.5 -28.5l57 -57
q18 -18 46 9l402 403q12 11 11.5 27.5t-12.5 28.5zM913 674l-21 20l-260 -259l21 -21q17 -17 17 -41.5t-17 -41.5l-438 -437q-17 -17 -41 -17t-41 17l-83 83q-18 17 -18 41.5t17 41.5l438 438q17 17 41 16.5t42 -17.5l20 -21l260 260l-20 21l114 114l83 -83l-114 -114v0z
" />
    <glyph glyph-name="ticheng" unicode="&#xe64c;" 
d="M512 392q-135 0 -245 29t-172.5 80.5t-62.5 114.5t62.5 114.5t172.5 80.5t245 29t245 -29t172.5 -80.5t62.5 -114.5t-62.5 -114.5t-172.5 -80.5t-245 -29zM512 776q-89 0 -168 -14.5t-132.5 -37.5t-84.5 -51.5t-31 -56.5t31 -57t84.5 -51.5t132.5 -37t168 -14.5t168 14.5
t132.5 37t84.5 51.5t31 57t-31 56.5t-84.5 51.5t-132.5 37.5t-168 14.5zM512 160q-205 0 -342.5 64t-137.5 160q0 28 13 54q9 16 28 16q13 0 22.5 -9t9.5 -23q0 -6 -2 -12q-7 -12 -7 -26q0 -60 120 -110t296 -50t296 50t120 110q0 14 -7 26q-3 7 -3 14q0 13 9.5 22.5
t22.5 9.5q8 0 16.5 -5.5t12.5 -12.5q13 -27 13 -54q0 -96 -137.5 -160t-342.5 -64zM512 -72q-135 0 -245 29t-172.5 80.5t-62.5 114.5q0 28 13 54q4 8 12.5 13t16.5 5q13 0 22.5 -9.5t9.5 -22.5q0 -7 -3 -14q-7 -12 -7 -26q0 -28 31 -56.5t84.5 -51.5t132.5 -37.5t168 -14.5
t168 14.5t132.5 37.5t84.5 51.5t31 56.5q0 14 -7 26q-3 7 -3 14q0 13 9.5 22.5t22.5 9.5q8 0 16.5 -5.5t12.5 -12.5q13 -26 13 -54q0 -63 -62.5 -114.5t-172.5 -80.5t-245 -29z" />
    <glyph glyph-name="renzheng" unicode="&#xe692;" 
d="M894 656q0 24 -17.5 41.5t-42.5 17.5l-31 1q-63 2 -125 27q-68 27 -111 58l-20 14q-16 12 -35.5 12t-35.5 -12l-19 -13q-46 -33 -112 -59q-62 -25 -124 -27l-32 -1q-25 0 -42.5 -17.5t-17.5 -41.5v-322q0 -67 36 -137.5t102 -132.5q60 -57 125 -89.5t119.5 -32.5
t119.5 32.5t125 89.5q66 62 102 132.5t36 137.5v322zM713 109q-50 -48 -105 -76.5t-96.5 -28.5t-96 28.5t-105.5 76.5q-56 53 -87 112t-31 113v319l30 1q74 2 146 31q73 30 124 65l20 14l26 -19v0q52 -34 117 -60q73 -29 146 -31l30 -1v-319q0 -54 -31 -113t-87 -112z
M481 318l-118 116l-44 -44l132 -131q12 -12 29.5 -12t30.5 12l239 238l-44 44z" />
    <glyph glyph-name="xiaoxizhongxin" unicode="&#xe624;" 
d="M371 66q8 -52 47.5 -89t94.5 -43l24 -1q61 0 107.5 38t55.5 95h212v0q10 0 17 7t7 17v2l-1 19q-2 48 -44 115q-20 33 -49 67v169q0 86 -52.5 155.5t-136.5 97.5q-10 45 -47.5 74t-85.5 29q-49 0 -86 -29t-47 -74q-85 -27 -137 -96.5t-52 -156.5v-169q-28 -33 -49 -67
q-42 -67 -44 -115l-1 -20v-1q0 -10 7 -17t17 -7v0h243v0zM651 66q-9 -37 -40.5 -61t-72.5 -24l-21 1q-36 4 -62.5 27.5t-34.5 56.5h231zM153 115q7 61 87 153q6 7 6 16v0v178q0 75 46.5 133t121.5 78q17 4 18 21q3 32 28 53.5t60 21.5q34 0 59.5 -21.5t28.5 -53.5
q2 -17 18 -21q74 -20 121 -79t47 -132v-178q0 -9 6 -16q80 -92 87 -153h-734v0z" />
    <glyph glyph-name="shenhezhong1" unicode="&#xe6c8;" 
d="M94 879h752q22 0 30 -2q24 -7 45 -22q3 -3 7 -8l3 -3q8 -10 9 -12q9 -14 15 -40q1 -3 1 -25v-370q-2 -9 -4 -12q-7 -11 -18 -15q-13 -5 -24.5 0t-17.5 15q-3 3 -4 10t-1 12.5t0.5 15.5t0.5 13v271v50q0 30 -8 40q-3 5 -4 6q-8 6 -18 8h-12h-733h-11h-3.5t-4.5 -1
q-12 -4 -19 -14q-6 -8 -6 -52v-687q0 -36 1 -41q4 -11 13 -18q9 -6 41 -6h408h16q8 -3 15 -8t10.5 -16t-0.5 -23q-5 -14 -19 -19q-5 -2 -46 -2h-385q-35 0 -43 2q-52 14 -72 60q-3 7 -4.5 14.5t-2.5 18t-1 16v20v18.5v158v405v108v42q1 1 1 4.5t1 5.5q4 16 7 23q16 37 56 54
q3 1 19 5h3t4 0.5t3 0.5zM302 640h366q21 0 23 -1q13 -3 21 -15q7 -12 5 -23q-5 -22 -24 -28q-4 -1 -28 -1h-335q-29 0 -32 1q-20 6 -25 28q-2 7 0 13.5t5 10.5q5 8 15 13q1 0 4.5 0.5t4.5 1.5zM302 435h366h23q13 -4 21 -16q7 -12 5 -23q-5 -21 -24 -27q-4 -2 -28 -2h-335
q-29 0 -32 1q-20 6 -25 28q-2 7 0 13.5t5 10.5q5 9 15 13q1 0 4.5 1t4.5 1zM776 305q58 1 102 -27q35 -22 57 -56q8 -13 10 -19q1 -2 2.5 -6.5t2.5 -6.5q8 -19 11 -43.5t-2 -48.5q-1 -3 -2 -8t-1 -8q-10 -28 -15 -36q-4 -7 -13 -21q4 0 7 -1.5t6 -3.5t5 -4t5 -5.5t4 -4.5
l45 -44q2 -2 6 -5.5t6 -6t5 -6t5 -7.5q4 -11 1 -22.5t-10 -17.5q-8 -5 -15 -7q-13 -4 -27 4l-10 10l-18 18l-33 33q-2 1 -5.5 4.5l-6 6l-4.5 4.5q-3 4 -5 10l-0.5 2t-0.5 3q-1 -1 -10 -6q-10 -7 -18 -11q-15 -6 -29 -10q-4 -2 -12 -3t-10.5 -2t-7.5 -0.5t-8 -0.5
q-9 -2 -17 0h-4.5h-4.5q-4 1 -14 2.5t-14 3.5q-19 6 -30 10q-10 5 -28 18q-45 31 -64 88q-1 2 -7 30q-1 3 -1 8v7q-3 12 0 27q1 3 1.5 7.5t0.5 7.5q8 28 11 36q28 65 94 94q8 4 38 11q12 2 17 2h3t2 1zM778 236q-2 0 -6.5 -0.5t-6.5 -1.5q-18 -4 -21 -6q-42 -18 -60 -62
q-1 -1 -6 -21.5t3 -43.5q4 -15 6 -19q16 -35 53 -52q11 -5 24 -8q3 -1 7.5 -1h6.5q8 -2 14 -1q1 1 4.5 1h4.5q21 5 22 6q44 18 61 59q3 6 7 22q1 2 1 6.5t1 6.5q2 10 -1 21q-5 21 -8 28q-21 49 -78 64q-7 2 -28 2zM302 231h206q10 0 12 -1q14 -4 21 -16t5 -22
q-5 -23 -26 -29q-2 -1 -17 -1h-186q-20 0 -27 4q-9 6 -14.5 16.5t-2.5 22.5q3 7 8 14q4 6 14 10q2 0 4.5 1z" />
    <glyph glyph-name="completed" unicode="&#xe61d;" 
d="M918 -13h-810q-11 0 -18.5 7.5t-7.5 17.5v594q0 11 7.5 18.5t18.5 7.5h810q10 0 17.5 -7.5t7.5 -18.5v-594q0 -10 -7.5 -17.5t-17.5 -7.5zM133 38h759v543h-759v-543zM108 607v110q0 5 3 8.5t8 3.5h787q5 0 8.5 -3.5t3.5 -8.5v-110h-810zM918 582h-810q-11 0 -18.5 7.5
t-7.5 17.5v110q0 15 11 26.5t26 11.5h787q15 0 26 -11.5t11 -26.5v-110q0 -10 -7.5 -17.5t-17.5 -7.5zM133 633h759v70h-759v-70zM445 143v0q-10 0 -17 6l-142 120q-8 7 -9 17.5t6 18.5t17.5 9t18.5 -6l124 -104l261 264q8 7 18.5 7.5t18 -7t7.5 -18.5t-7 -18l-278 -281
q-8 -8 -18 -8v0z" />
    <glyph glyph-name="zhifubao2" unicode="&#xe6de;" 
d="M189 832q-48 0 -86.5 -38.5t-38.5 -86.5v-645q0 -49 38.5 -87t86.5 -38h645q49 0 87 38.5t38 86.5v645q1 48 -37.5 86.5t-87.5 38.5h-645zM897 62q0 -24 -19.5 -43.5t-43.5 -19.5h-645q-23 0 -43 19.5t-20 43.5v645q0 23 20 43t43 20h645q24 0 43.5 -20t19.5 -43v-645z
M543 520v41h187v63h-187v62h-63v-62h-187v-63h187v-41h-166v-63h312q-4 -13 -12 -31.5t-15 -30.5t-19 -34t-14 -26q-19 6 -62.5 27.5t-88 34t-98.5 12.5q-53 0 -90.5 -38.5t-37.5 -100.5q0 -60 46 -96.5t124 -36.5q31 0 56 6t42 13.5t38 26.5t33 33t38 44q37 -18 120 -46.5
t147 -49t64 -19.5v83q-9 3 -72 20t-125 34t-80 24q21 37 50 105t40 109h-167zM366 186q-73 0 -104 25.5t-31 58.5t22 61.5t64 28.5q15 0 29 -1t28.5 -3.5t23.5 -3.5t24 -6.5t20.5 -7t23 -9.5t20.5 -9.5t24 -11.5t23 -11q-43 -57 -81 -84t-86 -27z" />
    <glyph glyph-name="shijian" unicode="&#xe6c6;" 
d="M967 663l-57 -69l-210 177l57 68zM324 771l-210 -177l-57 69l205 176zM535 560v-233l182 -108l-34 -57l-217 131v267h69zM512 742q171 0 290.5 -119.5t119.5 -284.5q0 -82 -30.5 -155.5t-89.5 -128.5q-117 -125 -290 -125q-171 0 -290.5 119.5t-119.5 284.5
q0 82 30.5 156t89.5 128q117 125 290 125zM512 20q137 0 228 91t91 222t-91 222t-228 91q-142 0 -228 -86q-91 -91 -91 -221.5t91 -221.5q97 -97 228 -97z" />
    <glyph glyph-name="pass" unicode="&#xe601;" 
d="M512 896q-140 0 -257.5 -68.5t-186 -186t-68.5 -257.5t68.5 -257.5t186 -186t257.5 -68.5t257.5 68.5t186 186t68.5 257.5t-68.5 257.5t-186 186t-257.5 68.5zM512 -81q-94 0 -180.5 37t-148.5 99t-99 148.5t-37 180.5t37 180.5t99 148.5t148.5 99t180.5 37t180.5 -37
t148.5 -99t99 -148.5t37 -180.5t-37 -180.5t-99 -148.5t-148.5 -99t-180.5 -37zM445 254l-173 193l-32 -33l200 -225l368 342l-33 32z" />
    <glyph glyph-name="zhucechenggong" unicode="&#xe620;" 
d="M512 -128q-111 0 -217 53.5t-181.5 145t-100.5 199.5q-31 134 9 263.5t138 222.5t231 125q195 46 372 -52q25 -13 18 -38q-4 -11 -13 -17.5t-20 -4.5q-9 1 -17 6q-73 40 -149 51q-183 27 -330 -78q-148 -106 -180 -285q-21 -117 16.5 -226t121.5 -185t196 -103
q118 -29 231.5 4t196 117.5t112.5 201.5q44 172 -43 330q-7 13 -6 23q2 23 25 28q3 1 7 1q19 0 27 -17q23 -39 38 -82q30 -84 30 -171t-28 -165.5t-77 -145t-121.5 -115t-158.5 -70.5q-62 -16 -125 -16h-2v0zM448 299l6 8l103.5 103.5l121.5 121.5q15 15 32 11
q10 -2 17.5 -11.5t7.5 -19.5q0 -12 -8 -21l-5 -5l-249 -249q-26 -26 -52 0l-123.5 123.5t-9 31t22.5 23.5q18 5 32 -10q17 -16 49.5 -49t49.5 -49z" />
    <glyph glyph-name="anzhuang" unicode="&#xe70b;" horiz-adv-x="1044" 
d="M508 304l-98 -137q-10 -13 -25 -16.5t-29 4.5l-168 96v-92l320 -178v323zM547 -17l319 178v94l-168 -100q-13 -8 -28.5 -5t-24.5 15l-98 135v-317zM901 574l117 -180q9 -15 5 -31.5t-19 -25.5l-97 -57v-119q0 -25 -20 -35l-340 -191q-20 -9 -39 0l-340 191q-21 14 -21 35
v114l-106 62q-2 0 -2 2q-14 9 -17 26.5t7 30.5l125 181l2 -3l6 7l102 59l-2 2l4 10q16 48 49 84l9 8l77 -12q10 -1 19.5 4t13.5 15l27 75l10 2q60 13 117 0l10 -2l25 -73q3 -10 12.5 -16t19.5 -5l80 10l6 -8q11 -12 27 -37q14 -24 23 -47l4 -10l-7 -8l109 -53zM860 552
l-98 49l-19 -22q-6 -8 -6 -18.5t6 -16.5l33 -37zM195 552l84 -45l34 39q14 17 0 35l-24 28zM528.5 480q-38.5 0 -66.5 27.5t-28 66.5q0 40 27 67.5t67 27.5t67.5 -27.5t27.5 -67.5q0 -39 -28 -66.5t-66.5 -27.5zM528 519q22 0 38 16t16 37.5t-16 37.5t-37.5 16t-37.5 -16
t-16 -38q0 -21 15.5 -37t37.5 -16zM733 679q-2 4 -14 22l-57 -8q-25 -3 -47 10.5t-29 36.5l-17 52q-40 6 -77 0l-21 -54q-7 -22 -29.5 -35t-46.5 -10l-55 8q-17 -23 -31 -53l37 -45q16 -18 15.5 -44t-17.5 -44l-27 -31l211 -114l211 114l-26 29q-16 19 -16.5 44t14.5 44
l37 45q-7 22 -15 33zM61 372l316 -181l112 158l-323 174zM889 521l-324 -174l113 -158l305 181z" />
    <glyph glyph-name="-" unicode="&#xe603;" 
d="M787 -21l-4 52l-97 -12l7 -40h94zM317 -21l8 40l-98 12l-3 -52h93zM668 -21q-3 48 -6 78q-5 60 -75 96q-8 4 -22.5 7.5t-24.5 5.5l-11 1h-56q-40 -5 -57 -14q-68 -35 -73 -96q-3 -31 -6 -78h331zM467 259v-113v0q0 -15 11 -25.5t26 -10.5t26 10.5t11 25.5v0v113h-74z
M467 199q18 -1 37 -1q18 0 37 1v60h-74v-60zM785 346q0 -20 -21.5 -43.5t-57 -44t-89.5 -34.5t-113 -14q-73 0 -130 13.5t-88.5 35t-46.5 44t-15 43.5v235q0 31 20 65t55 62.5t89.5 47t115.5 18.5q69 0 124.5 -17.5t88.5 -46.5t50.5 -62t17.5 -67v-235zM504 786
q-61 0 -115.5 -19t-89.5 -49t-55 -65t-20 -68v-92q252 -33 375 90q37 37 49 71q3 -50 18 -86t34.5 -51.5t38.5 -24t33 -9.5h13v102q0 35 -17.5 69.5t-50.5 64.5t-88.5 48.5t-124.5 18.5zM622 418.5q0 -8.5 -6 -15t-15 -6.5t-15 6.5t-6 15t6 15t15 6.5t15 -6.5t6 -15z
M605 425q0 -9 -9 -9t-9 9v0q0 9 9 9t9 -9v0zM429 419q0 -9 -6.5 -15.5t-15 -6.5t-15 6.5t-6.5 15t6.5 15t14.5 6.5v0q9 0 15.5 -6.5t6.5 -14.5v0zM411 425q0 -9 -9 -9t-9 9t9 9t9 -9zM504 356q-4 0 -7 3t-3 7q0 2 2 2t3 -2q0 -6 5.5 -6t5.5 6q0 2 2 2t2 -2q0 -4 -3 -7t-7 -3
zM504 262q-18 0 -32.5 5t-22.5 10.5t-14 13t-7 11t-2 5.5v2q0 4 4 4t5 -3q0 -2 1.5 -5t6.5 -9.5t12 -11t20 -8.5t29 -4t29 4t20 8.5t12.5 11t6.5 9.5t2 5q1 3 4 3h2q3 -1 3 -4v-2l-2.5 -5t-7.5 -11t-14 -13.5t-22.5 -10.5t-32.5 -5zM608 247.5q2 -9.5 -6.5 -19t-23 -13
t-26.5 1t-14.5 14.5t6 19t23.5 12.5t27 -1t14 -14zM789 490q-10 0 -10 10v0q0 107 -80.5 182.5t-194 75.5t-194.5 -75.5t-81 -182.5q0 -10 -10 -10t-10 10q0 115 86.5 196.5t208.5 81.5t208.5 -81.5t86.5 -196.5v0q0 -10 -10 -10v0zM657.5 718q-9.5 -7 -23 -6.5t-25.5 7.5
q-47 27 -105 27t-105 -27q-12 -7 -25.5 -7.5t-23 6.5t-5.5 20.5t19 22.5q63 37 139.5 37t139.5 -37q16 -9 20 -22.5t-5.5 -20.5zM804 350q-1 -12 -10.5 -20t-21.5 -6.5t-19.5 11t-6.5 21.5l17 144q1 12 10.5 19.5t21.5 6t19.5 -11t6.5 -21.5zM822 493h-0.5h-0.5l-17 -144h1
q13 -1 24 17t15 52q4 32 -2.5 53t-19.5 22zM204 350q2 -12 11.5 -20t21.5 -6.5t19.5 11t5.5 21.5l-16 144q-2 12 -11.5 19.5t-21.5 6t-19.5 -11t-6.5 -21.5zM187 493v0v0l17 -144v0q-14 -1 -25 17t-15 52q-3 32 3.5 53t19.5 22zM747 112l-165 43l-28 -109l164 -43
q23 -6 43 6t26 34.5t-6 43t-34 25.5zM679 -21h122l-12 84q-3 25 -23 40t-45 11.5t-40 -23.5t-12 -45zM262 112l158 43l34 -109l-164 -43q-23 -6 -43 6t-26 34.5t6 43t35 25.5zM330 -21l9 67q4 25 -11.5 45t-40 23.5t-44.5 -11.5t-24 -40l-11 -84h122z" />
    <glyph glyph-name="baoxiufuwu" unicode="&#xe605;" 
d="M802 112q-12 0 -21 -9q-9 -8 -9 -20v-109q0 -9 -6.5 -16t-16.5 -7h-647q-10 0 -16.5 7t-6.5 16v820q0 10 6.5 16.5t16.5 6.5h647q10 0 17 -6.5t7 -16.5v-101q-2 -18 13 -27q16 -9 31 0t14 27v109q0 30 -21.5 51.5t-51.5 22.5h-664q-31 0 -52.5 -22t-21.5 -52v-836
q0 -30 21.5 -51.5t52.5 -22.5h664q30 0 51.5 21.5t21.5 52.5v117q0 12 -8.5 20.5t-20.5 8.5zM984 483l-12 29l-108 -103q-15 -15 -37 -15t-37 15t-14 36q0 21 14 34l108 103l-31 13q-40 15 -83 16q-89 0 -151 -61q-45 -43 -58.5 -103.5t10.5 -118.5l-205 -198
q-25 -24 -26 -59q0 -35 26 -59q25 -25 62 -25q35 0 61 25l205 198q39 -14 78 -14q89 0 151 61q46 45 59 106.5t-12 119.5zM908 289q-21 -20 -56 -34t-64 -14h-1q-39 -1 -74 16l-13 6l-228 -218q-13 -12 -30.5 -12t-30.5 12q-12 11 -12 28q0 16 12 29l228 219l-6 14
q-23 46 -14 97.5t48 87.5q50 48 120 48q2 0 32 -3l-57 -54q-29 -26 -29 -65q0 -40 29 -65q28 -27 67 -27t68 27l58 56q7 -41 -5.5 -80t-41.5 -68zM442 -15q-39 0 -64 25q-27 25 -27 62q1 36 27 62l203 196q-23 58 -9.5 119.5t59.5 103.5q64 63 153 62q43 -1 84 -16l35 -15
l-3 -3l-107 -104q-15 -12 -14 -32q0 -19 14 -33t34 -13q21 -1 35 13l111 107l14 -34q25 -58 12 -120.5t-59 -108.5q-65 -62 -154 -62q-39 1 -77 13l-204 -196q-26 -26 -63 -26zM784 608q-88 0 -149 -60q-45 -42 -58 -101.5t11 -116.5v-2l-1 -2l-205 -198q-24 -23 -25 -57
q0 -33 25 -56q24 -24 60 -24q33 0 59 24l207 199l2 -1q38 -13 76 -13q88 0 149 59q46 45 58.5 105.5t-12.5 117.5l-10 25l-104 -101q-17 -15 -40 -15t-39 15q-16 16 -16 39t16 36l103 100l-26 11q-39 15 -81 16zM441 29q-19 0 -32 13t-14 31q1 18 14 31l226 218l-5 11
q-24 48 -14.5 100.5t48.5 88.5q52 49 123 49v0q5 0 24 -2h9l7 -1l-63 -59q-28 -26 -28 -63q0 -38 28 -62q28 -27 66 -27q37 0 65 27l62 59l1 -6q8 -41 -5 -81t-43 -69q-51 -50 -122 -49q-41 0 -76 16l-11 5l-227 -216q-13 -14 -33 -14zM787 564q-68 0 -118 -47
q-38 -34 -47 -84.5t14 -96.5l7 -15l-230 -222q-11 -10 -11 -26q0 -15 11 -26q12 -11 28.5 -11t27.5 11l230 219l16 -6q34 -16 72 -16q69 0 119 47q27 27 39.5 63.5t7.5 75.5l-54 -52q-29 -28 -70 -28t-70 28q-30 27 -29 68q0 40 29 68l53 49h-1h-1q-18 1 -23 1v0zM514 585
q0 -11 -7.5 -18.5t-18.5 -7.5h-321q-15 0 -23 13t0 26t23 13h321q11 0 18.5 -7.5t7.5 -18.5zM711 697q0 -11 -8 -19q-7 -7 -18 -7h-518q-15 0 -23 13t0 26t23 13h518q10 0 18 -8t8 -18zM383 480q0 -11 -7 -19q-8 -8 -19 -8h-190q-15 0 -23 13.5t0 26.5t23 13h190q11 0 19 -8
q7 -7 7 -18z" />
    <glyph glyph-name="daizhifu" unicode="&#xe655;" 
d="M978 449h-43v129q0 44 -31.5 75.5t-76.5 31.5h-43v42q0 45 -26.5 76.5t-63.5 31.5h-597q-38 0 -64.5 -31.5t-26.5 -76.5v-116h6q-6 -16 -6 -33v-514q0 -44 31.5 -75.5t76.5 -31.5h713q45 0 76.5 31.5t31.5 75.5v128h43q17 0 30 14t13 33v164q0 19 -12.5 32.5t-30.5 13.5z
M154 782h503q69 0 69 -97h-662q0 43 26 70t64 27zM872 107q0 -87 -88 -87h-626q-89 0 -89 87v428q0 87 89 87h626q89 0 89 -87v-86h-132q-18 0 -30.5 -13.5t-12.5 -33.5v-163q0 -19 12.5 -33t30.5 -14h132v-85h-1zM957 238h-173q-16 0 -23 0.5t-13.5 6.5t-6.5 18v116
q0 12 6.5 18t13.5 7t23 1h173q17 0 19 -3t2 -23v-117q0 -19 -2 -21.5t-19 -2.5zM827.5 364q-17.5 0 -30.5 -13t-13 -30t13 -30t30.5 -13t30 13t12.5 30t-12.5 30t-30 13z" />
  </font>
</defs>
</svg>
